<?xml version="1.0" standalone="no"?>
<!DOCTYPE svg PUBLIC "-//W3C//DTD SVG 20010904//EN"
 "http://www.w3.org/TR/2001/REC-SVG-20010904/DTD/svg10.dtd">
<svg version="1.0" xmlns="http://www.w3.org/2000/svg"
 width="2000.000000pt" height="2000.000000pt" viewBox="0 0 2000.000000 2000.000000"
 preserveAspectRatio="xMidYMid meet">
<metadata>
Created by potrace 1.14, written by Peter Selinger 2001-2017
</metadata>
<g transform="translate(0.000000,2000.000000) scale(0.100000,-0.100000)"
fill="#000000" stroke="none">
<path d="M4419 16203 c-1 -5 -2 -1589 -3 -3520 -1 -3117 1 -3513 14 -3514 20
0 11173 0 11223 0 l37 1 0 3520 0 3520 -5635 0 c-3099 0 -5636 -3 -5636 -7z
m1998 -5495 c6 -8 10 -152 11 -368 0 -195 1 -360 1 -367 1 -9 77 -12 324 -10
l322 2 1 362 c1 199 4 369 7 377 5 13 26 16 125 16 84 0 123 -4 130 -12 7 -9
10 -155 9 -423 l-2 -410 -25 -45 c-26 -47 -88 -97 -130 -105 -14 -3 -87 -6
-162 -6 l-138 -2 -1 -146 c-1 -80 0 -162 1 -182 1 -21 -3 -40 -9 -44 -17 -10
-244 -6 -254 4 -6 6 -11 87 -11 188 l-1 178 -139 2 c-162 2 -207 14 -259 72
-59 65 -60 76 -60 512 0 217 3 401 7 407 10 17 240 16 253 0z m2340 -3 c52
-16 99 -57 129 -115 17 -32 18 -73 17 -560 0 -590 3 -568 -75 -634 -23 -20
-59 -41 -79 -46 -37 -10 -819 -15 -867 -6 -70 14 -140 83 -160 156 -5 20 -8
259 -8 545 1 467 3 513 19 545 32 62 67 95 124 116 57 20 831 19 900 -1z
m1634 -17 c25 -15 59 -46 75 -70 l29 -43 0 -546 0 -545 -28 -42 c-15 -23 -46
-54 -69 -69 l-42 -28 -446 -3 -446 -2 -47 29 c-25 17 -59 49 -74 72 l-28 43
-3 515 c-2 349 1 530 8 560 15 61 53 105 113 136 l52 26 430 -3 430 -3 46 -27z
m2141 18 c10 -10 14 -40 12 -115 -1 -56 -4 -105 -8 -109 -4 -4 -168 -7 -364
-7 l-357 0 -1 -163 -2 -162 272 0 c164 0 286 -4 310 -11 22 -6 58 -29 82 -52
62 -60 69 -97 68 -358 0 -193 -3 -218 -21 -259 -11 -25 -33 -57 -49 -72 -61
-57 -67 -58 -509 -59 -222 0 -408 2 -413 5 -11 7 -14 207 -3 225 8 12 71 14
365 14 l356 -1 1 27 c1 44 1 255 0 278 -1 21 -1 21 -280 22 -176 0 -289 5
-307 11 -47 18 -93 58 -117 103 -21 40 -22 52 -22 292 0 272 1 275 61 339 61
64 67 65 511 66 330 0 404 -2 415 -14z m1297 5 c12 -8 14 -102 14 -599 l0
-590 -22 -43 c-31 -60 -68 -98 -117 -120 -38 -17 -72 -19 -361 -20 -211 0
-329 4 -348 11 -59 22 -105 62 -130 114 -22 45 -25 63 -24 166 0 64 3 121 8
128 8 14 230 20 250 7 7 -3 11 -43 11 -94 l0 -88 230 0 c127 -1 230 2 230 6 1
9 1 808 1 851 l-1 35 -347 -1 c-192 0 -356 3 -365 8 -15 7 -17 24 -17 110 0
57 5 108 11 115 8 10 116 13 487 13 263 0 482 -4 490 -9z m-2641 -1230 c1 -68
-1 -128 -6 -133 -9 -9 -271 -12 -280 -3 -4 4 -8 61 -10 127 -2 91 0 123 10
130 7 4 74 7 148 6 l135 -3 3 -124z"/>
<path d="M6191 10690 c-4 -3 -6 -185 -6 -405 1 -433 1 -432 58 -486 50 -47 74
-53 237 -55 85 -1 157 -2 160 -3 3 0 5 -84 5 -186 0 -117 3 -186 10 -188 5 -1
53 -2 105 -2 l95 1 5 189 5 190 140 -1 c77 0 156 4 175 9 52 13 100 54 121
103 18 40 19 68 17 440 l-3 397 -97 -1 c-54 0 -101 -1 -106 -1 -4 -1 -7 -171
-7 -378 l0 -378 -350 0 -350 -1 -5 379 -5 380 -98 1 c-55 0 -102 -1 -106 -4z"/>
<path d="M7918 10688 c-69 -6 -100 -22 -137 -70 -39 -51 -41 -76 -41 -598 l0
-507 23 -44 c15 -29 40 -54 71 -73 l48 -30 426 0 c470 0 455 -1 519 64 17 18
36 51 41 73 6 26 9 240 8 547 -1 456 -3 508 -18 537 -23 42 -85 92 -124 99
-45 8 -736 10 -816 2z m725 -187 c16 -1 17 -30 17 -474 l0 -472 -344 0 c-189
0 -348 3 -352 7 -8 9 -12 915 -4 927 3 5 11 10 17 12 10 3 594 3 666 0z"/>
<path d="M7986 10470 c-1 -3 -2 -203 -2 -445 l1 -440 320 -1 c176 -1 322 2
325 6 4 6 5 835 1 875 -1 10 -641 15 -645 5z"/>
<path d="M9505 10689 c-47 -6 -92 -29 -121 -61 -46 -52 -47 -59 -47 -601 0
-472 1 -515 18 -550 22 -47 76 -93 124 -104 20 -5 221 -8 447 -8 400 1 411 2
445 23 52 32 79 65 93 113 9 33 12 175 11 544 -2 459 -3 503 -20 535 -24 49
-44 69 -88 92 -36 18 -63 19 -430 21 -216 1 -410 -1 -432 -4z m731 -188 c21
-1 21 -2 21 -474 l0 -472 -351 0 -351 0 -1 465 c-1 256 2 470 7 475 6 8 508
12 675 6z"/>
<path d="M9584 10471 c-2 -2 -4 -203 -4 -446 l0 -442 325 0 325 0 0 446 0 446
-321 0 c-176 0 -322 -2 -325 -4z"/>
<path d="M11759 10690 c-83 -6 -137 -40 -168 -102 -20 -41 -21 -60 -21 -277 0
-212 2 -235 20 -271 20 -39 64 -78 110 -96 15 -6 140 -10 313 -10 l287 1 0
-190 0 -190 -365 0 -366 0 3 -95 3 -94 400 0 c352 1 404 3 430 17 45 25 70 49
91 88 17 30 19 59 19 279 0 244 -1 246 -25 280 -63 90 -74 93 -415 94 l-289 1
-1 188 0 187 25 1 c14 0 178 1 365 2 l340 2 1 93 c1 87 0 92 -20 93 -127 3
-687 3 -737 -1z"/>
<path d="M12908 10692 c-42 -4 -39 5 -40 -117 l0 -70 358 -2 c198 -1 362 -2
366 -2 4 -1 7 -214 7 -474 l0 -472 -252 1 c-139 1 -255 2 -258 3 -3 0 -5 42
-4 91 0 50 -2 91 -5 91 -3 1 -51 2 -107 3 l-103 2 -1 -31 c-5 -189 2 -229 53
-286 53 -60 65 -62 398 -63 168 -1 320 1 338 5 48 10 95 46 128 98 l29 45 0
588 0 588 -45 1 c-146 3 -831 3 -862 1z"/>
<path d="M10922 9475 l3 -109 113 -1 c63 0 116 4 120 9 9 15 8 198 -2 203 -5
3 -60 6 -123 7 l-114 1 3 -110z"/>
<path d="M2709 8158 c-2 -160 1 -992 5 -995 4 -4 688 -6 962 -4 l60 1 0 515 0
515 -513 0 -513 0 -1 -32z"/>
<path d="M4399 8188 c-6 -12 -3 -1021 4 -1025 6 -4 612 -6 952 -4 l70 1 0 512
-1 513 -512 3 c-282 1 -513 1 -513 0z"/>
<path d="M6123 7680 c0 -281 4 -513 9 -516 6 -4 762 -8 981 -5 l37 1 0 515 0
515 -513 0 -514 0 0 -510z"/>
<path d="M7810 7675 l0 -515 50 0 c28 0 232 -1 455 -1 223 0 432 1 464 1 l59
0 -1 513 -2 512 -512 3 -513 2 0 -515z"/>
<path d="M9539 8158 c-3 -130 0 -990 3 -994 4 -4 685 -7 979 -4 l45 0 0 515 0
515 -513 0 -513 0 -1 -32z"/>
<path d="M11229 8188 c-1 -2 -2 -234 -3 -515 l-1 -513 22 0 c30 -1 807 -1 921
0 l87 0 -1 513 -1 512 -511 3 c-282 1 -513 1 -513 0z"/>
<path d="M12950 7675 l0 -515 23 -1 c114 -2 1000 1 1003 4 4 3 5 230 4 830 l0
197 -515 0 -515 0 0 -515z"/>
<path d="M14640 7675 c0 -405 3 -515 13 -515 17 -1 857 -1 945 -1 l72 1 0 515
0 515 -515 0 -515 0 0 -515z"/>
<path d="M16380 7675 l1 -515 47 -1 c181 -2 854 0 857 3 3 3 8 818 6 986 l-1
42 -455 0 -455 0 0 -515z"/>
<path d="M2730 6480 l-22 -5 1 -488 c0 -268 0 -497 1 -510 l0 -23 510 0 c281
0 511 2 511 5 5 18 4 1021 0 1022 -30 3 -985 3 -1001 -1z"/>
<path d="M4415 6482 c-20 -3 -20 -9 -20 -515 l0 -513 512 0 c282 0 513 2 514
5 5 26 3 990 -1 1005 -6 18 -27 19 -496 20 -269 0 -498 0 -509 -2z"/>
<path d="M6131 6480 c-5 -3 -8 -234 -7 -515 l1 -510 510 0 510 0 3 513 c2 406
0 512 -10 513 -67 3 -1002 3 -1007 -1z"/>
<path d="M7843 6482 l-33 -3 0 -513 0 -512 513 0 512 1 2 513 1 512 -31 1
c-133 2 -939 3 -964 1z"/>
<path d="M9542 6476 c-4 -7 -7 -877 -3 -1002 1 -20 2 -20 514 -20 l512 1 0
513 c1 350 -2 512 -10 513 -96 6 -1008 2 -1013 -5z"/>
<path d="M11243 6480 c-17 -5 -18 -30 -18 -516 l0 -511 512 1 c509 0 513 0
514 21 0 11 1 242 2 512 l2 493 -25 1 c-145 3 -973 3 -987 -1z"/>
<path d="M12978 6482 l-28 -3 0 -513 0 -512 515 0 515 0 0 130 c1 536 -1 890
-5 894 -5 5 -954 9 -997 4z"/>
<path d="M14657 6482 c-16 -3 -17 -42 -15 -515 l3 -512 510 0 510 0 3 513 c2
483 1 512 -15 513 -72 2 -983 3 -996 1z"/>
<path d="M16390 6482 c-6 -2 -9 -194 -9 -516 l0 -512 454 0 c407 0 455 1 456
15 3 91 0 1004 -5 1008 -6 6 -879 10 -896 5z"/>
<path d="M2710 4698 c-3 -383 -1 -850 3 -854 3 -3 726 -7 988 -4 l35 0 0 458
-1 457 -512 3 -513 2 0 -62z"/>
<path d="M4399 4758 c-1 -2 -2 -209 -3 -460 l-1 -458 50 0 c361 -3 969 1 973
5 7 6 10 871 4 898 -4 16 -37 17 -513 17 -280 0 -510 -1 -510 -2z"/>
<path d="M6123 4300 l0 -460 66 0 c620 -3 7784 0 7787 3 2 2 5 209 6 460 l3
457 -3931 0 -3931 0 0 -460z"/>
<path d="M14640 4300 l0 -460 43 0 c23 0 255 -2 515 -3 l472 -2 0 463 0 462
-515 0 -515 0 0 -460z"/>
<path d="M16387 4753 c-4 -4 -7 -211 -7 -460 l1 -453 52 0 c94 -1 832 -1 847
0 15 0 16 145 11 853 l-1 67 -448 0 c-247 0 -452 -3 -455 -7z"/>
</g>
</svg>
